<svg xmlns:xlink="http://www.w3.org/1999/xlink" width="24" height="24" viewBox="0 0 24 24" fill="none" xmlns="http://www.w3.org/2000/svg"><path d="M20.45 6.28001C20.45 5.55001 20.17 4.87001 19.65 4.35001C18.62 3.32001 16.83 3.32001 15.8 4.35001L5.17 14.98C5.09 15.06 5.03 15.16 4.99 15.27L3.6 19.46C3.51 19.73 3.58 20.03 3.78 20.23C3.92 20.37 4.11 20.45 4.31 20.45C4.39 20.45 4.47 20.44 4.55 20.41L8.74 19.01C8.85 18.97 8.95 18.91 9.03 18.83L19.65 8.21001C20.16 7.69001 20.45 7.01002 20.45 6.28001ZM18.59 7.15001L8.09 17.65L6.33 18.24L5.77 17.68L6.35 15.92L16.85 5.42001C17.31 4.96001 18.12 4.96001 18.58 5.42001C18.81 5.65001 18.94 5.96001 18.94 6.29001C18.94 6.62001 18.82 6.92001 18.59 7.15001Z" fill="#636466" class="icon_svg-fill_as_stroke"></path><path d="M20.5 11.75C20.09 11.75 19.75 12.09 19.75 12.5V19.75H12.5C12.09 19.75 11.75 20.09 11.75 20.5C11.75 20.91 12.09 21.25 12.5 21.25H20.5C20.91 21.25 21.25 20.91 21.25 20.5V12.5C21.25 12.09 20.91 11.75 20.5 11.75Z" fill="#636466" class="icon_svg-fill_as_stroke"></path><path d="M4.25 11.5V4.25H11.5C11.91 4.25 12.25 3.91 12.25 3.5C12.25 3.09 11.91 2.75 11.5 2.75H3.5C3.09 2.75 2.75 3.09 2.75 3.5V11.5C2.75 11.91 3.09 12.25 3.5 12.25C3.91 12.25 4.25 11.91 4.25 11.5Z" fill="#636466" class="icon_svg-fill_as_stroke"></path></svg>