<svg xmlns:xlink="http://www.w3.org/1999/xlink" width="24" height="24" viewBox="0 0 24 24" fill="none" xmlns="http://www.w3.org/2000/svg"><path d="M13.1012 15.4431L10.3583 15.2301L9.60098 15.4331L10.3253 18.1362C10.4126 18.462 10.2193 18.7968 9.89359 18.8841L8.91064 19.1474C8.58491 19.2347 8.25006 19.0414 8.1628 18.7157L7.43848 16.0125L6.9293 16.1489C6.44075 16.2799 5.93848 15.9899 5.80754 15.5013L4.88565 12.0609C4.7547 11.5722 5.04472 11.0701 5.53327 10.9391L8.98677 10.0138L9.68834 9.53176L5.34923 2.01611C3.00558 3.57592 1.19771 5.9619 0.411761 8.89509C-1.30309 15.2951 2.49487 21.8734 8.8949 23.5884C11.8281 24.3743 14.7982 24.0016 17.321 22.7519L13.1012 15.4431Z" class="icon_svg-fill_as_stroke" fill="#B92B27"></path><path d="M9.18945 10.8063L10.1645 14.4455L12.6352 14.6372L10.0729 10.1992L9.18945 10.8063Z" class="icon_svg-fill_as_stroke" fill="#B92B27"></path><path d="M17.2213 14.993L15.025 6.79639L11.3428 9.32666L14.492 14.7811L17.2213 14.993Z" class="icon_svg-fill_as_stroke" fill="#B92B27"></path><path d="M15.1047 0.412078C12.1716 -0.373874 9.2014 -0.00120151 6.67871 1.24853L10.9575 8.65973L14.814 6.00965L14.7399 5.73317C14.6309 5.32603 14.8725 4.90747 15.2796 4.79841C15.6868 4.68936 16.1053 4.93099 16.2144 5.33813L17.3147 9.44491C17.8965 9.29246 18.4928 9.63816 18.6487 10.2198C18.8045 10.8015 18.4609 11.399 17.8809 11.5579L18.9799 15.6595C19.0889 16.0666 18.8473 16.4852 18.4402 16.5942C18.033 16.7033 17.6145 16.4616 17.5054 16.0545L17.4317 15.7795L14.9571 15.5874L18.6506 21.9843C20.9942 20.4244 22.802 18.0385 23.588 15.1054C25.3028 8.70533 21.5048 2.12702 15.1047 0.412078Z" class="icon_svg-fill_as_stroke" fill="#B92B27"></path></svg>