<svg xmlns:xlink="http://www.w3.org/1999/xlink" width="24" height="24" viewBox="0 0 24 24" fill="none" xmlns="http://www.w3.org/2000/svg"><path d="M7.46001 9.04001C6.26001 9.04001 5.29001 8.07001 5.29001 6.87001C5.29001 5.67001 6.26001 4.70001 7.46001 4.70001C8.66001 4.70001 9.63001 5.67001 9.63001 6.87001C9.63001 8.07001 8.65001 9.04001 7.46001 9.04001ZM7.46001 6.20001C7.09001 6.20001 6.79001 6.50001 6.79001 6.87001C6.79001 7.24001 7.09001 7.54001 7.46001 7.54001C7.83001 7.54001 8.13001 7.24001 8.13001 6.87001C8.13001 6.50001 7.83001 6.20001 7.46001 6.20001Z" fill="#636466" class="icon_svg-fill_as_stroke"></path><path d="M18.41 7.39001H12.22C11.81 7.39001 11.47 7.05001 11.47 6.64001C11.47 6.23001 11.81 5.89001 12.22 5.89001H18.41C18.82 5.89001 19.16 6.23001 19.16 6.64001C19.16 7.05001 18.82 7.39001 18.41 7.39001Z" fill="#636466" class="icon_svg-fill_as_stroke"></path><path d="M18.41 14.72H12.22C11.81 14.72 11.47 14.38 11.47 13.97C11.47 13.56 11.81 13.22 12.22 13.22H18.41C18.82 13.22 19.16 13.56 19.16 13.97C19.16 14.38 18.82 14.72 18.41 14.72Z" fill="#636466" class="icon_svg-fill_as_stroke"></path><path d="M18.41 18.38H12.22C11.81 18.38 11.47 18.04 11.47 17.63C11.47 17.22 11.81 16.88 12.22 16.88H18.41C18.82 16.88 19.16 17.22 19.16 17.63C19.16 18.04 18.82 18.38 18.41 18.38Z" fill="#636466" class="icon_svg-fill_as_stroke"></path><path d="M18.41 11.06H12.22C11.81 11.06 11.47 10.72 11.47 10.31C11.47 9.9 11.81 9.56 12.22 9.56H18.41C18.82 9.56 19.16 9.9 19.16 10.31C19.16 10.72 18.82 11.06 18.41 11.06Z" fill="#636466" class="icon_svg-fill_as_stroke"></path><path d="M7.44999 11.23L7.81999 11.87L8.18999 12.51H7.44999H6.71999L7.08999 11.87L7.44999 11.23ZM7.44999 9.73001C6.90999 9.73001 6.41999 10.02 6.14999 10.48L5.77999 11.12L5.40999 11.76C5.13999 12.22 5.13999 12.8 5.40999 13.26C5.68999 13.72 6.17999 14 6.71999 14H7.45999H8.19999C8.73999 14 9.22999 13.71 9.49999 13.25C9.76999 12.79 9.76999 12.21 9.49999 11.75L9.12999 11.11L8.75999 10.47C8.48999 10.02 7.98999 9.73001 7.44999 9.73001Z" fill="#636466" class="icon_svg-fill_as_stroke"></path><path d="M8.81001 19.07H6.10001C5.69001 19.07 5.35001 18.73 5.35001 18.32V15.61C5.35001 15.2 5.69001 14.86 6.10001 14.86H8.81001C9.22001 14.86 9.56001 15.2 9.56001 15.61V18.32C9.56001 18.73 9.22001 19.07 8.81001 19.07ZM6.85001 17.57H8.06001V16.36H6.85001V17.57Z" fill="#636466" class="icon_svg-fill_as_stroke"></path><path d="M18.5 21.75H5.5C3.71 21.75 2.25 20.29 2.25 18.5V5.5C2.25 3.71 3.71 2.25 5.5 2.25H18.5C20.29 2.25 21.75 3.71 21.75 5.5V18.5C21.75 20.29 20.29 21.75 18.5 21.75ZM5.5 3.75C4.54 3.75 3.75 4.54 3.75 5.5V18.5C3.75 19.46 4.54 20.25 5.5 20.25H18.5C19.46 20.25 20.25 19.46 20.25 18.5V5.5C20.25 4.54 19.46 3.75 18.5 3.75H5.5Z" fill="#636466" class="icon_svg-fill_as_stroke"></path></svg>