<svg xmlns:xlink="http://www.w3.org/1999/xlink" width="24" height="24" viewBox="0 0 24 24" fill="none" xmlns="http://www.w3.org/2000/svg"><path d="M18 21.25H14.28C13.87 21.25 13.53 20.91 13.53 20.5V16.51C13.53 15.73 12.9 15.1 12.12 15.1H12.02C11.29 15.14 10.71 15.76 10.71 16.51V20.5C10.71 20.91 10.37 21.25 9.96 21.25H6C5.59 21.25 5.25 20.91 5.25 20.5V12.75H2.5C2.19 12.75 1.92 12.56 1.8 12.28C1.69 11.99 1.76 11.67 1.99 11.46L11.6 2.46C11.89 2.19 12.34 2.19 12.63 2.47L22.02 11.47C22.24 11.68 22.31 12.01 22.2 12.29C22.09 12.57 21.81 12.76 21.5 12.76H18.75V20.51C18.75 20.91 18.41 21.25 18 21.25ZM15.03 19.75H17.25V12C17.25 11.59 17.59 11.25 18 11.25H19.63L12.1 4.03L4.4 11.25H6C6.41 11.25 6.75 11.59 6.75 12V19.75H9.2V16.51C9.2 14.97 10.41 13.69 11.95 13.6H12.09C13.72 13.6 15.02 14.91 15.02 16.51V19.75H15.03Z" fill="#636466" class="icon_svg-fill_as_stroke"></path></svg>