<svg xmlns:xlink="http://www.w3.org/1999/xlink" width="24" height="24" viewBox="0 0 24 24" fill="none" xmlns="http://www.w3.org/2000/svg"><path d="M22.02 11.46L12.63 2.45999C12.34 2.17999 11.89 2.17999 11.6 2.44999L1.99 11.45C1.77 11.66 1.69 11.99 1.8 12.27C1.91 12.56 2.19 12.74 2.5 12.74H5.25V20.49C5.25 20.9 5.59 21.24 6 21.24H9.62C10.03 21.24 10.37 20.9 10.37 20.49V16.36C10.37 15.43 11.09 14.67 12 14.62H12.12C13.08 14.62 13.87 15.4 13.87 16.37V20.5C13.87 20.91 14.21 21.25 14.62 21.25H18C18.41 21.25 18.75 20.91 18.75 20.5V12.75H21.5C21.81 12.75 22.08 12.56 22.2 12.28C22.32 12 22.24 11.67 22.02 11.46Z" fill="#B92B27" class="icon_svg-fill_as_stroke"></path></svg>