<svg xmlns:xlink="http://www.w3.org/1999/xlink" width="24" height="24" viewBox="0 0 24 24" fill="none" xmlns="http://www.w3.org/2000/svg"><path d="M12 2.25C6.62 2.25 2.25 6.62 2.25 12C2.25 17.38 6.62 21.75 12 21.75C17.38 21.75 21.75 17.38 21.75 12C21.75 6.62 17.38 2.25 12 2.25ZM19.34 8.25H15.82C15.31 6.17 14.43 4.78 13.69 3.92C16.16 4.44 18.22 6.07 19.34 8.25ZM14.75 12C14.75 12.83 14.69 13.57 14.59 14.25H9.41C9.31 13.57 9.25 12.83 9.25 12C9.25 11.17 9.31 10.43 9.41 9.75H14.59C14.69 10.43 14.75 11.17 14.75 12ZM12 19.66C11.42 19.17 10.34 17.99 9.72 15.75H14.28C13.66 17.99 12.58 19.16 12 19.66ZM3.75 12C3.75 11.22 3.87 10.47 4.07 9.75H7.9C7.81 10.44 7.75 11.18 7.75 12C7.75 12.82 7.81 13.56 7.9 14.25H4.07C3.87 13.53 3.75 12.78 3.75 12ZM9.72 8.25C10.34 6.01 11.43 4.84 12 4.34C12.58 4.83 13.66 6.01 14.28 8.25H9.72ZM10.31 3.92C9.57 4.78 8.69 6.17 8.18 8.25H4.66C5.78 6.07 7.84 4.44 10.31 3.92ZM4.66 15.75H8.18C8.69 17.83 9.57 19.22 10.31 20.08C7.84 19.56 5.78 17.93 4.66 15.75ZM13.69 20.08C14.43 19.22 15.31 17.83 15.82 15.75H19.34C18.22 17.93 16.16 19.56 13.69 20.08ZM19.93 14.25H16.1C16.19 13.56 16.25 12.82 16.25 12C16.25 11.18 16.19 10.44 16.1 9.75H19.93C20.13 10.47 20.25 11.22 20.25 12C20.25 12.78 20.13 13.53 19.93 14.25Z" fill="#636466" class="icon_svg-fill_as_stroke"></path></svg>