<svg xmlns:xlink="http://www.w3.org/1999/xlink" width="24" height="24" viewBox="0 0 24 24" xmlns="http://www.w3.org/2000/svg"><g fill="none" fill-rule="evenodd"><path d="M7 4.5h8a3 3 0 0 1 3 3v6a3 3 0 0 1-3 3h-3l-3.5 4v-4H7a3 3 0 0 1-3-3v-6a3 3 0 0 1 3-3Zm13 8a1 1 0 0 1 1 1v4a1 1 0 0 1-1 1h-2v2l-2-2h-2" class="icon_svg-stroke" stroke-width="1.5px" stroke="#282829" stroke-linecap="round" stroke-linejoin="round" fill="none"></path><g class="icon_svg-fill_as_stroke" fill="#282829"><circle cx="8" cy="10.5" r="1" fill="#282829"></circle><circle cx="11" cy="10.5" r="1" fill="#282829"></circle><circle cx="14" cy="10.5" r="1" fill="#282829"></circle></g></g></svg>