<svg xmlns:xlink="http://www.w3.org/1999/xlink" width="24" height="24" viewBox="0 0 24 24" fill="none" xmlns="http://www.w3.org/2000/svg"><path d="M20.86 14.93L20.48 14.54C20.22 14.27 19.98 14 19.76 13.73C19.57 13.49 19.4 13.27 19.26 13.07C19.07 12.79 18.99 12.62 18.96 12.55C18.93 12.46 18.81 12.1 18.73 11.12C18.68 10.5 18.66 9.8 18.67 9.12C18.67 9.05 18.67 8.97 18.67 8.87C18.66 5.22 15.67 2.25 11.99 2.25C8.30999 2.25 5.31999 5.23 5.31999 8.89V9.11C5.32999 9.81 5.30999 10.51 5.25999 11.12C5.17999 12.09 5.06999 12.46 5.02999 12.54C4.99999 12.62 4.91999 12.78 4.72999 13.06C4.58999 13.26 4.42999 13.48 4.22999 13.72C4.01999 14 3.77999 14.27 3.51999 14.54L3.27999 14.79C3.22999 14.84 3.17999 14.89 3.15999 14.91C2.76999 15.28 2.54999 15.79 2.54999 16.32V17.1C2.54999 17.96 3.24999 18.65 4.10999 18.65H8.21999C8.56999 20.41 10.13 21.75 12 21.75C13.87 21.75 15.43 20.42 15.78 18.65H19.89C20.75 18.65 21.45 17.95 21.45 17.1V16.32C21.44 15.78 21.22 15.26 20.86 14.93ZM12 20.25C10.97 20.25 10.1 19.58 9.77999 18.65H14.22C13.9 19.58 13.03 20.25 12 20.25ZM19.88 17.15L4.05999 17.1V16.32C4.05999 16.2 4.10999 16.08 4.22999 15.97L4.60999 15.59C4.88999 15.29 5.15999 14.99 5.39999 14.7C5.62999 14.42 5.81999 14.16 5.98999 13.92C6.18999 13.62 6.33999 13.34 6.43999 13.11C6.58999 12.72 6.69999 12.1 6.76999 11.25C6.81999 10.59 6.83999 9.85 6.82999 9.08V8.9C6.82999 6.06 9.15999 3.75 12.01 3.75C14.86 3.75 17.19 6.05 17.19 8.87V9.08C17.18 9.83 17.2 10.58 17.25 11.24C17.32 12.08 17.42 12.71 17.58 13.1C17.67 13.34 17.82 13.61 18.03 13.91C18.19 14.15 18.39 14.41 18.62 14.69C18.86 14.98 19.13 15.28 19.41 15.58L19.82 15.99C19.91 16.08 19.96 16.19 19.96 16.32L19.88 17.15Z" fill="#636466" class="icon_svg-fill_as_stroke"></path></svg>