<svg xmlns:xlink="http://www.w3.org/1999/xlink" width="24" height="24" viewBox="0 0 24 24" fill="none" xmlns="http://www.w3.org/2000/svg"><path d="M17.7 9.25C16.75 9.25 15.98 9.52 15.37 9.92C15.8 10.23 16.18 10.6 16.49 11.01C16.83 10.85 17.23 10.75 17.7 10.75C19.48 10.75 20.25 12.12 20.25 12.81V20.25H17.55V21C17.55 21.26 17.5 21.51 17.41 21.75H21C21.41 21.75 21.75 21.41 21.75 21V12.81C21.75 11.32 20.34 9.25 17.7 9.25Z" fill="#636466" class="icon_svg-fill_as_stroke"></path><path d="M17.7 2.73C16.77 2.73 15.95 3.16 15.4 3.82C15.78 4.26 16.07 4.77 16.25 5.34C16.42 4.7 17 4.23 17.69 4.23C18.52 4.23 19.19 4.9 19.19 5.73C19.19 6.56 18.52 7.23 17.69 7.23C17.19 7.23 16.75 6.98 16.48 6.61C16.48 6.65 16.49 6.69 16.49 6.74C16.49 7.3 16.38 7.83 16.19 8.32C16.63 8.58 17.14 8.74 17.69 8.74C19.34 8.74 20.69 7.39 20.69 5.74C20.69 4.09 19.35 2.73 17.7 2.73Z" fill="#636466" class="icon_svg-fill_as_stroke"></path><path d="M7.5 6.73C7.5 6.69 7.51 6.65 7.51 6.6C7.24 6.98 6.8 7.23 6.3 7.23C5.47 7.23 4.8 6.56 4.8 5.73C4.8 4.9 5.47 4.23 6.3 4.23C6.99 4.23 7.57 4.7 7.74 5.34C7.93 4.77 8.22 4.26 8.6 3.82C8.04 3.16 7.23 2.73 6.3 2.73C4.65 2.73 3.3 4.08 3.3 5.73C3.3 7.38 4.65 8.73 6.3 8.73C6.85 8.73 7.36 8.57 7.8 8.31C7.61 7.81 7.5 7.28 7.5 6.73Z" fill="#636466" class="icon_svg-fill_as_stroke"></path><path d="M12 3.73C10.35 3.73 9 5.08 9 6.73C9 8.38 10.35 9.73 12 9.73C13.65 9.73 15 8.38 15 6.73C15 5.08 13.65 3.73 12 3.73ZM12 8.23C11.17 8.23 10.5 7.56 10.5 6.73C10.5 5.9 11.17 5.23 12 5.23C12.83 5.23 13.5 5.9 13.5 6.73C13.5 7.56 12.83 8.23 12 8.23Z" fill="#636466" class="icon_svg-fill_as_stroke"></path><path d="M6.45 21V20.25H3.75V12.81C3.75 12.11 4.52 10.75 6.3 10.75C6.79 10.75 7.18 10.86 7.5 11.01C7.81 10.6 8.19 10.23 8.63 9.92C7.97 9.49 7.17 9.25 6.3 9.25C3.66 9.25 2.25 11.32 2.25 12.81V21C2.25 21.41 2.59 21.75 3 21.75H6.59C6.5 21.51 6.45 21.26 6.45 21Z" fill="#636466" class="icon_svg-fill_as_stroke"></path><path d="M7.95 21C7.95 21.41 8.29 21.75 8.7 21.75H15.3C15.71 21.75 16.05 21.41 16.05 21V13.91C16.05 12.42 14.64 10.35 12 10.35C9.36 10.35 7.95 12.42 7.95 13.91V21ZM9.45 13.91C9.45 13.21 10.22 11.85 12 11.85C13.78 11.85 14.55 13.22 14.55 13.91V20.25H9.45V13.91Z" fill="#636466" class="icon_svg-fill_as_stroke"></path></svg>