<svg xmlns:xlink="http://www.w3.org/1999/xlink" width="24" height="24" viewBox="0 0 24 24" fill="none" xmlns="http://www.w3.org/2000/svg"><path d="M6.15967 10.6679C6.15967 11.1142 6.55576 11.4773 7.04258 11.4773H7.48447V9.85861H7.04258C6.55567 9.85852 6.15967 10.2217 6.15967 10.6679Z" class="icon_svg-fill_as_stroke" fill="#B92B27"></path><path d="M9.24743 12.7983H8.80554V14.4171H9.24743C9.73425 14.4171 10.1302 14.054 10.1302 13.6077C10.1302 13.1614 9.73425 12.7983 9.24743 12.7983Z" class="icon_svg-fill_as_stroke" fill="#B92B27"></path><path class="icon_svg-fill_as_stroke" d="M12 0C5.38339 0 0 5.38339 0 12C0 18.6166 5.38339 24 12 24C18.6166 24 24 18.6166 24 12C24 5.38339 18.6166 0 12 0ZM9.24739 15.7382H8.8055V16.8416C8.8055 17.2065 8.50973 17.5021 8.14493 17.5021C7.78013 17.5021 7.48435 17.2065 7.48435 16.8416V15.7382H5.49907C5.13427 15.7382 4.8385 15.4425 4.8385 15.0777C4.8385 14.7128 5.13418 14.4171 5.49907 14.4171H7.48445V12.7983H7.04256C5.8272 12.7983 4.8385 11.8426 4.8385 10.6678C4.8385 9.49315 5.8272 8.53738 7.04256 8.53738H7.48445V7.43405C7.48445 7.06915 7.78013 6.77347 8.14502 6.77347C8.50982 6.77347 8.8056 7.06915 8.8056 7.43405V8.53738H10.35C10.7148 8.53738 11.0105 8.83315 11.0105 9.19795C11.0105 9.56285 10.7148 9.85853 10.35 9.85853H8.8055V11.4772H9.24739C10.4627 11.4772 11.4514 12.433 11.4514 13.6077C11.4514 14.7825 10.4627 15.7382 9.24739 15.7382ZM19.2385 13.7711C19.2385 15.4484 17.874 16.8131 16.1966 16.8131C14.5193 16.8131 13.1548 15.4484 13.1548 13.7711V10.5046C13.1548 8.8273 14.5193 7.46275 16.1966 7.46275C17.874 7.46275 19.2385 8.8273 19.2385 10.5046V13.7711Z" fill="#B92B27"></path><path d="M16.1967 8.78391C15.2479 8.78391 14.476 9.55574 14.476 10.5046V13.7711C14.476 14.72 15.2479 15.4919 16.1967 15.4919C17.1455 15.4919 17.9174 14.72 17.9174 13.7711V10.5046C17.9174 9.55574 17.1455 8.78391 16.1967 8.78391Z" class="icon_svg-fill_as_stroke" fill="#B92B27"></path></svg>